<svg width="119" height="40" viewBox="0 0 119 40" fill="none" xmlns="http://www.w3.org/2000/svg">
<path d="M101.704 34.639C99.7571 35.3601 95.8886 36.3308 93.7405 36.7564C93.7015 36.7645 93.6624 36.7726 93.6233 36.7807C93.1175 36.8849 92.6324 36.9844 92.0624 37.0969C90.7358 37.3514 88.896 37.7236 85.0735 38.2186C83.9628 38.3763 82.8499 38.5195 81.7333 38.6491C74.2751 39.5114 66.7603 39.7969 59.2628 39.6314C54.6588 39.528 50.0577 39.2502 45.4814 38.7842C45.3297 38.7701 45.1757 38.7556 45.0204 38.7408C41.9953 38.4596 38.2563 37.9766 35.9292 37.5719C32.9784 37.0661 30.955 36.6298 29.3296 36.2598C20.0871 34.0408 10.2041 31.7063 3.13934 24.6038C1.81571 23.0873 0.757636 21.1119 0.808571 18.9612C0.827023 17.8256 1.14734 16.7232 1.663 15.7377C3.07145 13.1207 5.4333 11.3794 7.82274 9.93435C9.21766 9.08941 10.6214 8.38749 11.9192 7.80122C13.7671 6.96923 15.4351 6.35132 16.8465 5.87791C20.2125 4.74155 24.165 3.82006 27.0966 3.26171C27.5738 3.16968 28.0212 3.08664 28.442 3.0105C30.7775 2.56132 33.1164 2.18411 35.4676 1.86498C35.6249 1.85091 35.7839 1.83717 35.9457 1.82351C37.9732 1.65617 40.4321 1.36517 44.3363 1.07968C46.0424 0.957385 48.0086 0.841502 50.3307 0.764191C51.8344 0.715437 52.5922 0.735482 53.226 0.75014C53.4116 0.754708 53.5859 0.759236 53.7624 0.762507C54.3653 0.773822 54.9918 0.74335 55.7423 0.712212C56.7203 0.672248 57.8756 0.629997 59.4211 0.690187C59.5981 0.697131 59.7718 0.704018 59.9422 0.710829C64.4784 0.903005 66.5509 0.970235 68.1258 1.00162C68.6031 1.01331 69.0376 1.02584 69.4859 1.04824C70.9295 1.11822 72.9864 1.32112 74.5172 1.51749C75.7512 1.67018 78.2077 1.91545 80.0556 2.13016C80.7674 2.21156 81.7152 2.34504 82.8228 2.51657C83.9908 2.69749 85.3038 2.91539 86.7387 3.16299C90.3444 3.79258 92.214 4.22926 93.7558 4.58741C94.1904 4.69011 94.587 4.78649 94.9881 4.88623C96.2747 5.20595 97.8452 5.63248 99.4119 6.11303C101.312 6.69286 103.192 7.35527 104.629 7.91364C108.293 9.42925 111.914 11.2175 114.941 13.9586C116.5 15.3712 117.662 17.1653 118.012 18.6617C118.374 20.1619 118.085 21.0191 117.941 21.0058C117.761 21.0043 117.707 20.1861 117.168 18.947C116.64 17.7049 115.523 16.2234 114.059 14.9254C111.122 12.3285 107.422 10.5688 103.714 9.11329C99.1477 7.35136 94.4008 6.08546 89.59 5.06623C86.23 4.35836 82.8367 3.78746 79.4271 3.32702C79.0786 3.27998 78.7284 3.23388 78.3768 3.18883C75.5038 2.86594 72.6253 2.63471 70.6009 2.49264C68.9239 2.37413 67.71 2.27942 66.6616 2.20288C65.9366 2.15048 65.3054 2.10864 64.6608 2.08229C64.3148 2.0682 63.8412 2.05104 63.2673 2.0335C62.3577 2.00568 61.2139 1.97785 59.9204 1.95862C57.8947 1.92755 55.5627 1.92344 53.3556 1.94175C51.7513 1.95374 49.8817 1.97939 48.1134 2.03373C45.5601 2.10968 43.2015 2.25019 42.005 2.36883C39.9121 2.5727 37.5184 2.81052 35.3971 3.07496C33.3784 3.32407 31.6236 3.59217 30.6302 3.78982C29.4654 4.02272 28.4261 4.1971 26.9302 4.48079C25.8852 4.68112 24.5985 4.93782 22.8971 5.35097C20.8962 5.84029 19.517 6.21967 18.3366 6.56335C16.6797 7.05378 15.4532 7.44731 13.6587 8.20054C11.6772 9.03531 9.67678 10.039 8.17434 10.9353C7.49907 11.3346 6.73006 11.8391 5.98303 12.4165C5.01028 13.1643 4.04028 14.0806 3.3318 15.0041C2.74981 15.7563 2.35191 16.4624 2.09837 17.1016C2.01913 17.3009 1.9509 17.5032 1.89667 17.6959C1.79547 18.1139 1.73887 18.5454 1.7319 18.9773C1.72653 19.3001 1.74843 19.6224 1.79655 19.9412C1.81959 20.0604 1.84778 20.1852 1.88171 20.3149C2.05433 20.9725 2.36531 21.7322 2.93654 22.6096C3.84174 23.975 4.91282 25.0149 6.12937 26.0055C7.06094 26.7566 8.14992 27.5007 9.40796 28.2126C10.2821 28.7083 11.3074 29.2226 12.3325 29.6871C13.8692 30.3864 15.4107 30.9791 16.5093 31.4009C16.9069 31.5539 17.2494 31.6991 17.5928 31.8418C17.5943 31.8425 17.5958 31.8431 17.5973 31.8438C17.6206 31.8535 17.6441 31.8632 17.6675 31.8728C20.3376 32.7968 23.0615 33.5654 25.8118 34.2266C26.0513 34.2804 26.2946 34.3344 26.5371 34.3873C27.7042 34.6422 28.8572 34.8704 29.6037 34.9928C30.4093 35.1268 32.4438 35.5185 34.6047 35.8603C36.0097 36.0847 37.476 36.2928 38.6746 36.4402C39.3844 36.5278 40.0315 36.6349 40.7135 36.7429C41.3465 36.8431 42.012 36.944 42.7197 37.0193C43.0772 37.0574 43.4654 37.0916 43.8817 37.1266C44.2467 37.1573 44.6419 37.1894 45.0412 37.2236C45.4141 37.2556 46.2435 37.3483 47.3225 37.4545C47.9879 37.5201 48.731 37.5894 49.5258 37.655C51.6225 37.7932 53.7136 37.8936 55.8142 37.9588C56.256 37.9568 56.633 37.9454 56.9334 37.9243C57.1488 37.9091 57.3326 37.8884 57.5215 37.8671C57.7786 37.8379 58.0448 37.8075 58.4118 37.786C58.6986 37.7692 59.0372 37.7666 59.2646 37.7802C59.275 37.7808 59.2852 37.7815 59.2951 37.7821C59.3864 37.7885 59.4589 37.7972 59.5254 37.8052C59.6099 37.8154 59.6852 37.8243 59.7773 37.8255C59.8437 37.8263 59.9128 37.8211 59.9979 37.8147C60.1336 37.8045 60.31 37.7913 60.5777 37.7936C61.5724 37.8021 62.7013 37.8099 63.8123 37.8065C65.0384 37.8031 66.2515 37.7854 67.2072 37.7552C68.2692 37.7224 69.8185 37.6918 71.344 37.6369C72.4243 37.5985 73.4751 37.5503 74.404 37.4925C75.3119 37.4362 76.2264 37.3525 77.1419 37.2608C78.2353 37.1512 79.2581 37.0363 80.1583 36.9606C80.3384 36.9455 80.5639 36.9463 80.8458 36.9465C81.0456 36.9465 81.2751 36.9461 81.5348 36.9395C82.6649 36.8083 83.7871 36.6657 84.9125 36.5091C84.9519 36.5001 84.9925 36.4908 85.0331 36.4815C85.0338 36.4813 85.0344 36.4812 85.0351 36.481C85.9511 36.2698 87.1919 35.9781 88.9604 35.737C89.4032 35.6766 89.6983 35.6542 89.9579 35.6347C90.2137 35.6152 90.4417 35.5975 90.7677 35.5408C91.1406 35.4757 91.5583 35.3776 92.0382 35.2621C92.7092 35.1006 93.4374 34.9175 94.1832 34.777C94.235 34.7672 94.2907 34.7567 94.3486 34.7456C94.9005 34.6402 95.6909 34.4837 96.4944 34.3396C98.8306 33.7694 101.167 33.105 103.437 32.3161C107.201 30.9873 110.938 29.3699 113.963 26.8496C115.43 25.6215 116.561 24.2029 117.116 23.0004C117.682 21.8007 117.764 21.0011 117.941 21.0058C118.083 20.9982 118.336 21.8457 117.94 23.3056C117.557 24.762 116.379 26.4909 114.82 27.8387C112.293 30.0358 109.331 31.5462 106.314 32.8195C106.16 32.886 106.004 32.9524 105.848 33.0178C104.664 33.5111 103.579 33.9456 102.466 34.3603C102.215 34.4539 101.961 34.5469 101.704 34.639ZM103.06 32.2414C101.154 33.0633 97.3419 34.2351 95.219 34.7725C95.1805 34.7827 95.1419 34.7928 95.1032 34.803C94.6035 34.9335 94.1244 35.0583 93.561 35.2004C92.2495 35.5241 90.4318 35.992 86.6404 36.6864C85.5395 36.902 84.4356 37.1033 83.3273 37.2911C75.9245 38.5425 68.4349 39.2209 60.9391 39.4481C56.3359 39.5858 51.7266 39.5491 47.1322 39.3233C46.98 39.3172 46.8254 39.3108 46.6695 39.3041C43.6338 39.1815 39.8747 38.895 37.5296 38.6126C34.5564 38.2619 32.5129 37.9321 30.8704 37.6476C21.5244 35.9154 11.5328 34.1014 4.10599 27.3783C2.70481 25.9332 1.5448 24.0159 1.48311 21.8655C1.4421 20.7304 1.70429 19.6128 2.16766 18.6016C3.43723 15.9146 5.70471 14.052 8.01524 12.4839C9.36403 11.5671 10.7291 10.7927 11.9945 10.1393C13.7962 9.21172 15.4297 8.50736 16.8143 7.96073C20.1163 6.64976 24.0151 5.52268 26.9135 4.81167C27.3852 4.69479 27.8276 4.58845 28.2439 4.49039C30.5526 3.9196 32.8686 3.4205 35.1999 2.97875C35.3563 2.95646 35.5143 2.93443 35.6752 2.91231C37.6911 2.63909 40.1314 2.21981 44.0154 1.73037C45.7127 1.51896 47.6702 1.30033 49.985 1.10159C51.4841 0.974211 52.242 0.954564 52.8756 0.936034C53.0612 0.930883 53.2355 0.926283 53.412 0.920309C54.0146 0.900055 54.6386 0.836842 55.3865 0.766466C56.361 0.675375 57.5126 0.572713 59.0591 0.551939C59.2362 0.549606 59.41 0.547394 59.5805 0.545279C64.1206 0.499785 66.1938 0.458454 67.7682 0.407369C68.2454 0.394068 68.68 0.383841 69.1288 0.382745C70.5741 0.377078 72.6388 0.472057 74.1778 0.588042C75.418 0.67594 77.884 0.792303 79.7407 0.910008C80.4557 0.954047 81.4092 1.03774 82.5243 1.15106C83.7002 1.27061 85.0228 1.4195 86.4687 1.59166C90.1023 2.03168 91.9923 2.36991 93.5507 2.64688C93.9901 2.72669 94.3912 2.80218 94.7969 2.88079C96.0986 3.13274 97.6892 3.47649 99.2788 3.87439C101.207 4.35398 103.119 4.91708 104.583 5.39949C108.322 6.72124 112.031 8.31756 115.198 10.8965C116.828 12.2256 118.082 13.9564 118.51 15.4324C118.951 16.9116 118.707 17.7827 118.562 17.777C118.382 17.7849 118.285 16.9707 117.682 15.7615C117.09 14.5488 115.897 13.1277 114.368 11.9081C111.299 9.46843 107.512 7.90484 103.733 6.64537C99.0799 5.12485 94.2732 4.10912 89.4157 3.34306C86.0232 2.81201 82.6047 2.41948 79.1757 2.13812C78.8251 2.10939 78.4731 2.08168 78.1195 2.0551C75.2337 1.883 72.3469 1.80274 70.3179 1.76681C68.637 1.73623 67.4198 1.70518 66.3688 1.68362C65.6421 1.66923 65.0096 1.66048 64.3645 1.66791C64.0182 1.67195 63.5443 1.6796 62.9703 1.69211C62.0605 1.71194 60.9168 1.744 59.6241 1.7925C57.5995 1.86749 55.2705 1.98543 53.0674 2.11923C51.4659 2.21516 49.6002 2.33863 47.8372 2.48543C45.2914 2.69491 42.9434 2.95866 41.7547 3.13976C39.6754 3.45289 37.2974 3.81567 35.1928 4.19076C33.1899 4.54517 31.4516 4.90475 30.4698 5.15412C29.3188 5.44766 28.29 5.67619 26.8111 6.03779C25.778 6.29253 24.5065 6.61623 22.8291 7.11785C20.8565 7.71122 19.499 8.16226 18.3383 8.56725C16.7093 9.14372 15.5051 9.6009 13.7524 10.447C11.8174 11.3843 9.87221 12.4913 8.41875 13.4651C7.7653 13.8992 7.02374 14.4432 6.30796 15.0589C5.37568 15.8566 4.45496 16.8224 3.79578 17.7817C3.25396 18.5634 2.89356 19.2893 2.67382 19.9409C2.60511 20.144 2.54757 20.3497 2.5035 20.545C2.42431 20.9676 2.39037 21.4016 2.40602 21.8332C2.41755 22.1559 2.45628 22.4765 2.52103 22.7924C2.55027 22.9102 2.58495 23.0334 2.62563 23.1612C2.83243 23.8088 3.18273 24.5512 3.7991 25.3975C4.77452 26.7137 5.89856 27.696 7.16528 28.6216C8.13487 29.3229 9.26132 30.009 10.5549 30.6541C11.4538 31.1034 12.5046 31.5633 13.5526 31.9736C15.1238 32.5915 16.6942 33.1026 17.8134 33.4664C18.2184 33.5984 18.5681 33.7255 18.9185 33.85C18.92 33.8506 18.9215 33.8512 18.9231 33.8517C18.9469 33.8602 18.9708 33.8686 18.9946 33.8771C21.7095 34.66 24.4699 35.285 27.251 35.8014C27.4929 35.8426 27.7388 35.8837 27.9837 35.9239C29.1625 36.1174 30.326 36.2849 31.0778 36.368C31.8893 36.4597 33.9415 36.7445 36.1174 36.9726C37.5322 37.1232 39.0074 37.2543 40.2121 37.3387C40.9255 37.3891 41.5773 37.4621 42.264 37.5343C42.9014 37.6012 43.5712 37.6672 44.2819 37.7053C44.6409 37.7246 45.0303 37.7385 45.4479 37.7517C45.814 37.7632 46.2104 37.7746 46.6109 37.7879C46.985 37.8003 47.8181 37.8494 48.9012 37.8991C49.5691 37.9297 50.3148 37.96 51.1119 37.9839C53.213 38.0123 55.3065 38.003 57.4076 37.9583C57.8487 37.9331 58.2246 37.902 58.5235 37.8652C58.7377 37.8388 58.9202 37.8085 59.1078 37.7773C59.363 37.7347 59.6272 37.6904 59.9926 37.6497C60.2782 37.618 60.6161 37.5976 60.8439 37.5993C60.8543 37.5994 60.8645 37.5995 60.8745 37.5997C60.966 37.6012 61.0389 37.6061 61.1057 37.6106C61.1906 37.6164 61.2662 37.6214 61.3583 37.6177C61.4246 37.615 61.4934 37.6062 61.578 37.5954C61.713 37.5781 61.8885 37.5557 62.1559 37.544C63.1497 37.5004 64.2774 37.4491 65.3868 37.3875C66.611 37.32 67.8215 37.2388 68.7744 37.1586C69.8332 37.0703 71.3787 36.9587 72.8993 36.8241C73.9761 36.7291 75.0229 36.626 75.9475 36.5197C76.8512 36.4159 77.7601 36.2844 78.6695 36.1449C79.7558 35.9783 80.7711 35.81 81.6661 35.6873C81.8452 35.6628 82.0704 35.6519 82.352 35.6372C82.5515 35.6269 82.7806 35.6144 83.0396 35.5942C84.1613 35.4041 85.2745 35.2029 86.3901 34.9876C86.429 34.9766 86.4691 34.9652 86.5092 34.9538C86.5098 34.9536 86.5104 34.9534 86.5111 34.9532C87.4148 34.6943 88.6386 34.338 90.3921 34.0048C90.8312 33.9213 91.1246 33.8834 91.3829 33.8504C91.6373 33.8176 91.8641 33.7879 92.1867 33.7142C92.5556 33.6297 92.9676 33.5098 93.4409 33.3694C94.1024 33.1731 94.8201 32.952 95.5575 32.7727C95.6088 32.7602 95.6638 32.7468 95.721 32.7327C96.2666 32.5986 97.0478 32.401 97.8426 32.215C100.146 31.5233 102.444 30.7376 104.67 29.8309C108.359 28.3069 112.007 26.4962 114.896 23.821C116.296 22.5178 117.352 21.0419 117.843 19.812C118.345 18.5844 118.386 17.7816 118.562 17.777C118.704 17.7619 119 18.5951 118.682 20.0738C118.375 21.5482 117.289 23.3363 115.803 24.7639C113.394 27.0903 110.516 28.7535 107.57 30.183C107.419 30.2575 107.267 30.3319 107.114 30.4055C105.958 30.96 104.897 31.4507 103.807 31.9231C103.561 32.0298 103.313 32.1359 103.06 32.2414Z" fill="#991b1b"/>
</svg>
