<svg width="48" height="48" viewBox="0 0 48 48" fill="none" xmlns="http://www.w3.org/2000/svg">
<path d="M39.2571 20.67C38.5238 20.3033 37.6878 20.12 36.7491 20.12C35.7224 20.12 34.8131 20.3253 34.0211 20.736C33.5608 20.9705 33.1648 21.2667 32.8331 21.6246V15.676H30.0831V32H32.8331V26.06C32.8331 25.268 32.9651 24.6153 33.2291 24.102C33.5078 23.574 33.8964 23.178 34.3951 22.914C34.8938 22.65 35.4658 22.518 36.1111 22.518C36.9911 22.518 37.6731 22.7747 38.1571 23.288C38.6558 23.8013 38.9051 24.5787 38.9051 25.62V32H41.6551V25.268C41.6551 24.08 41.4424 23.112 41.0171 22.364C40.5918 21.6013 40.0051 21.0367 39.2571 20.67Z" fill="white"/>
<path d="M19.4551 34.2L26.7151 13.476H29.1791L21.9191 34.2H19.4551Z" fill="white"/>
<path d="M14.7118 26.574L20.7398 16.6H17.9238L13.3733 24.0917L8.85982 16.6H5.80182L11.8518 26.6104V32H14.7118V26.574Z" fill="white"/>
<path fill-rule="evenodd" clip-rule="evenodd" d="M26.6375 35.8535L26.6982 35.6802C27.5887 36.4996 28.7774 36.9999 30.0828 37H32.8328C33.9749 37 35.0271 36.6161 35.869 35.9717C36.7108 36.6162 37.7629 37 38.9051 37H41.6551C44.4165 37 46.6551 34.7614 46.6551 32V25.2676C46.655 23.5396 46.3537 21.6532 45.3836 19.9287C44.4937 18.3331 43.1843 17.0361 41.493 16.1982L41.4568 16.1807C40.2804 15.5984 39.0463 15.2803 37.8074 15.168C37.5696 12.8116 35.6956 10.938 33.3389 10.7011C33.3124 10.6614 33.2853 10.622 33.2576 10.583C32.3786 9.34371 30.9871 8.57639 29.4813 8.48535L29.1795 8.47559H26.7147C24.657 8.47575 22.8167 9.73555 22.0652 11.6367L22.0174 11.7655C21.6059 11.6567 21.1771 11.5996 20.7401 11.5996H17.9236C16.1771 11.5997 14.557 12.5112 13.6502 14.0039L13.3904 14.4307L13.1424 14.0195C12.2377 12.5182 10.613 11.5997 8.86017 11.5996H5.80157C3.99745 11.5997 2.33347 12.5722 1.44708 14.1436C0.560661 15.715 0.589047 17.6424 1.52228 19.1865L6.85138 28.0029V32C6.85138 34.7613 9.09016 36.9998 11.8514 37H14.7117C14.9074 37 15.1005 36.9888 15.2903 36.9669C15.3184 37.0092 15.3473 37.0512 15.3768 37.0928C16.3143 38.4146 17.8344 39.2001 19.4549 39.2002H21.9188C24.0428 39.2002 25.9351 37.858 26.6375 35.8535ZM30.0831 15.676H32.8331L32.8328 21.627C33.1648 21.2684 33.5602 20.9708 34.0211 20.736C34.8131 20.3253 35.7224 20.12 36.7491 20.12C37.6878 20.12 38.5238 20.3033 39.2571 20.67C40.0051 21.0367 40.5918 21.6013 41.0171 22.364C41.4424 23.112 41.6551 24.08 41.6551 25.268V32H38.9051V25.62C38.9051 24.5787 38.6558 23.8013 38.1571 23.288C37.6731 22.7747 36.9911 22.518 36.1111 22.518C35.4658 22.518 34.8938 22.65 34.3951 22.914C33.8964 23.178 33.5078 23.574 33.2291 24.102C32.9651 24.6153 32.8331 25.268 32.8331 26.06V32H30.0831V15.676ZM26.7151 13.476L19.4551 34.2H21.9191L29.1791 13.476H26.7151ZM20.7398 16.6L20.3231 16.5996L17.9238 16.6L13.3733 24.0917L8.85982 16.6H5.80182L11.8514 26.6084L11.8518 32H14.7118V26.574L20.7398 16.6Z" fill="black"/>
</svg>
