<svg width="96" height="96" viewBox="0 0 96 96" fill="none" opacity="0.02" xmlns="http://www.w3.org/2000/svg">
<circle opacity="0.5" cx="3" cy="3" r="3" fill="black"/>
<circle opacity="0.2" cx="3" cy="51" r="3" fill="black"/>
<circle opacity="0.7" cx="51" cy="3" r="3" fill="black"/>
<circle opacity="0.9" cx="51" cy="51" r="3" fill="black"/>
<circle opacity="0.9" cx="3" cy="15" r="3" fill="black"/>
<circle opacity="0.8" cx="3" cy="63" r="3" fill="black"/>
<circle opacity="0.2" cx="51" cy="15" r="3" fill="black"/>
<circle opacity="0.3" cx="51" cy="63" r="3" fill="black"/>
<circle opacity="0.2" cx="3" cy="27" r="3" fill="black"/>
<circle opacity="0.5" cx="3" cy="75" r="3" fill="black"/>
<circle opacity="0.8" cx="51" cy="27" r="3" fill="black"/>
<circle opacity="0.4" cx="51" cy="75" r="3" fill="black"/>
<circle opacity="0.7" cx="3" cy="39" r="3" fill="black"/>
<circle cx="3" cy="87" r="3" fill="black"/>
<circle opacity="0.2" cx="51" cy="39" r="3" fill="black"/>
<circle opacity="0.4" cx="51" cy="87" r="3" fill="black"/>
<circle opacity="0.2" cx="15" cy="3" r="3" fill="black"/>
<circle opacity="0.2" cx="15" cy="51" r="3" fill="black"/>
<circle opacity="0.3" cx="63" cy="3" r="3" fill="black"/>
<circle opacity="0.4" cx="63" cy="51" r="3" fill="black"/>
<circle opacity="0.7" cx="15" cy="15" r="3" fill="black"/>
<circle opacity="0.3" cx="15" cy="63" r="3" fill="black"/>
<circle opacity="0.3" cx="63" cy="15" r="3" fill="black"/>
<circle opacity="0.6" cx="63" cy="63" r="3" fill="black"/>
<circle cx="15" cy="27" r="3" fill="black"/>
<circle opacity="0.3" cx="15" cy="75" r="3" fill="black"/>
<circle opacity="0.5" cx="63" cy="27" r="3" fill="black"/>
<circle opacity="0.2" cx="63" cy="75" r="3" fill="black"/>
<circle opacity="0.7" cx="15" cy="39" r="3" fill="black"/>
<circle cx="15" cy="87" r="3" fill="black"/>
<circle opacity="0.9" cx="63" cy="39" r="3" fill="black"/>
<circle opacity="0.6" cx="63" cy="87" r="3" fill="black"/>
<circle opacity="0.5" cx="27" cy="3" r="3" fill="black"/>
<circle cx="27" cy="51" r="3" fill="black"/>
<circle opacity="0.5" cx="75" cy="3" r="3" fill="black"/>
<circle cx="75" cy="51" r="3" fill="black"/>
<circle opacity="0.6" cx="27" cy="15" r="3" fill="black"/>
<circle opacity="0.4" cx="27" cy="63" r="3" fill="black"/>
<circle cx="75" cy="15" r="3" fill="black"/>
<circle cx="75" cy="63" r="3" fill="black"/>
<circle opacity="0.9" cx="27" cy="27" r="3" fill="black"/>
<circle opacity="0.8" cx="27" cy="75" r="3" fill="black"/>
<circle opacity="0.4" cx="75" cy="27" r="3" fill="black"/>
<circle opacity="0.9" cx="75" cy="75" r="3" fill="black"/>
<circle opacity="0.8" cx="27" cy="39" r="3" fill="black"/>
<circle opacity="0.8" cx="27" cy="87" r="3" fill="black"/>
<circle opacity="0.3" cx="75" cy="39" r="3" fill="black"/>
<circle opacity="0.4" cx="75" cy="87" r="3" fill="black"/>
<circle opacity="0.8" cx="39" cy="3" r="3" fill="black"/>
<circle opacity="0.8" cx="39" cy="51" r="3" fill="black"/>
<circle opacity="0.4" cx="87" cy="3" r="3" fill="black"/>
<circle opacity="0.9" cx="87" cy="51" r="3" fill="black"/>
<circle opacity="0.3" cx="39" cy="15" r="3" fill="black"/>
<circle opacity="0.6" cx="39" cy="63" r="3" fill="black"/>
<circle opacity="0.5" cx="87" cy="15" r="3" fill="black"/>
<circle opacity="0.9" cx="87" cy="63" r="3" fill="black"/>
<circle opacity="0.6" cx="39" cy="27" r="3" fill="black"/>
<circle opacity="0.5" cx="39" cy="75" r="3" fill="black"/>
<circle cx="87" cy="27" r="3" fill="black"/>
<circle opacity="0.7" cx="87" cy="75" r="3" fill="black"/>
<circle opacity="0.6" cx="39" cy="39" r="3" fill="black"/>
<circle opacity="0.7" cx="39" cy="87" r="3" fill="black"/>
<circle opacity="0.6" cx="87" cy="39" r="3" fill="black"/>
<circle opacity="0.7" cx="87" cy="87" r="3" fill="black"/>
</svg>
